<mxfile host="Electron" modified="2024-05-01T14:54:36.310Z" agent="Mozilla/5.0 (Macintosh; Intel Mac OS X 10_15_7) AppleWebKit/537.36 (KHTML, like Gecko) draw.io/24.2.5 Chrome/120.0.6099.109 Electron/28.1.0 Safari/537.36" etag="49iSgHJ3mDwOAPzB2yP2" version="24.2.5" type="device">
  <diagram name="Page-1" id="s0GkFnKRO5kl5qIvAabD">
    <mxGraphModel dx="1042" dy="538" grid="0" gridSize="10" guides="1" tooltips="1" connect="1" arrows="1" fold="1" page="0" pageScale="1" pageWidth="827" pageHeight="1169" math="0" shadow="0">
      <root>
        <mxCell id="0" />
        <mxCell id="1" parent="0" />
        <mxCell id="yvyM9De7ikoliiOCbXH--16" value="" style="rounded=1;whiteSpace=wrap;html=1;fillColor=#f5f5f5;fontColor=#333333;strokeColor=#666666;" vertex="1" parent="1">
          <mxGeometry x="-7.5" y="183.5" width="197" height="165" as="geometry" />
        </mxCell>
        <mxCell id="yvyM9De7ikoliiOCbXH--17" value="CLIENT" style="rounded=0;whiteSpace=wrap;html=1;fillColor=#f5f5f5;fontColor=#333333;strokeColor=#666666;" vertex="1" parent="1">
          <mxGeometry x="31" y="83" width="120" height="32" as="geometry" />
        </mxCell>
        <mxCell id="yvyM9De7ikoliiOCbXH--18" value="" style="rounded=1;whiteSpace=wrap;html=1;fillColor=#dae8fc;strokeColor=#6c8ebf;" vertex="1" parent="1">
          <mxGeometry x="232" y="138" width="320" height="295" as="geometry" />
        </mxCell>
        <mxCell id="yvyM9De7ikoliiOCbXH--19" value="DOCKER HOST" style="rounded=0;whiteSpace=wrap;html=1;fillColor=#dae8fc;strokeColor=#6c8ebf;" vertex="1" parent="1">
          <mxGeometry x="331.75" y="83" width="120" height="32" as="geometry" />
        </mxCell>
        <mxCell id="yvyM9De7ikoliiOCbXH--21" value="REGISTRY" style="rounded=0;whiteSpace=wrap;html=1;fillColor=#d5e8d4;strokeColor=#82b366;" vertex="1" parent="1">
          <mxGeometry x="633" y="83" width="120" height="32" as="geometry" />
        </mxCell>
        <mxCell id="yvyM9De7ikoliiOCbXH--22" value="CLI" style="shape=step;perimeter=stepPerimeter;whiteSpace=wrap;html=1;fixedSize=1;" vertex="1" parent="1">
          <mxGeometry x="31" y="211.5" width="120" height="45" as="geometry" />
        </mxCell>
        <mxCell id="yvyM9De7ikoliiOCbXH--23" value="API" style="shape=step;perimeter=stepPerimeter;whiteSpace=wrap;html=1;fixedSize=1;" vertex="1" parent="1">
          <mxGeometry x="31" y="273.5" width="120" height="45" as="geometry" />
        </mxCell>
        <mxCell id="yvyM9De7ikoliiOCbXH--24" value="DOCKER DAEMON" style="shape=hexagon;perimeter=hexagonPerimeter2;whiteSpace=wrap;html=1;fixedSize=1;fillColor=#f8cecc;strokeColor=#b85450;" vertex="1" parent="1">
          <mxGeometry x="303.5" y="159" width="178" height="51" as="geometry" />
        </mxCell>
        <mxCell id="yvyM9De7ikoliiOCbXH--25" value="" style="rounded=1;whiteSpace=wrap;html=1;fillColor=#ffe6cc;strokeColor=#d79b00;" vertex="1" parent="1">
          <mxGeometry x="261" y="276" width="120" height="140" as="geometry" />
        </mxCell>
        <mxCell id="yvyM9De7ikoliiOCbXH--26" value="" style="rounded=1;whiteSpace=wrap;html=1;fillColor=#fff2cc;strokeColor=#d6b656;" vertex="1" parent="1">
          <mxGeometry x="408" y="276" width="120" height="139" as="geometry" />
        </mxCell>
        <mxCell id="yvyM9De7ikoliiOCbXH--27" value="CONTAINERS" style="rounded=0;whiteSpace=wrap;html=1;fillColor=#ffe6cc;strokeColor=#d79b00;" vertex="1" parent="1">
          <mxGeometry x="276.5" y="237" width="89" height="32" as="geometry" />
        </mxCell>
        <mxCell id="yvyM9De7ikoliiOCbXH--28" value="IMAGES" style="rounded=0;whiteSpace=wrap;html=1;fillColor=#fff2cc;strokeColor=#d6b656;" vertex="1" parent="1">
          <mxGeometry x="423.5" y="237" width="89" height="32" as="geometry" />
        </mxCell>
        <mxCell id="yvyM9De7ikoliiOCbXH--30" value="" style="html=1;whiteSpace=wrap;shape=isoCube2;backgroundOutline=1;isoAngle=15;" vertex="1" parent="1">
          <mxGeometry x="276.5" y="302" width="39" height="39" as="geometry" />
        </mxCell>
        <mxCell id="yvyM9De7ikoliiOCbXH--31" value="" style="html=1;whiteSpace=wrap;shape=isoCube2;backgroundOutline=1;isoAngle=15;" vertex="1" parent="1">
          <mxGeometry x="326.5" y="302" width="39" height="39" as="geometry" />
        </mxCell>
        <mxCell id="yvyM9De7ikoliiOCbXH--32" value="" style="html=1;whiteSpace=wrap;shape=isoCube2;backgroundOutline=1;isoAngle=15;" vertex="1" parent="1">
          <mxGeometry x="276.5" y="350" width="39" height="39" as="geometry" />
        </mxCell>
        <mxCell id="yvyM9De7ikoliiOCbXH--33" value="postgres" style="shape=parallelogram;perimeter=parallelogramPerimeter;whiteSpace=wrap;html=1;fixedSize=1;" vertex="1" parent="1">
          <mxGeometry x="423" y="285" width="89.5" height="31" as="geometry" />
        </mxCell>
        <mxCell id="yvyM9De7ikoliiOCbXH--34" value="ubuntu" style="shape=parallelogram;perimeter=parallelogramPerimeter;whiteSpace=wrap;html=1;fixedSize=1;" vertex="1" parent="1">
          <mxGeometry x="420" y="327" width="89.5" height="31" as="geometry" />
        </mxCell>
        <mxCell id="yvyM9De7ikoliiOCbXH--35" value="nginx" style="shape=parallelogram;perimeter=parallelogramPerimeter;whiteSpace=wrap;html=1;fixedSize=1;" vertex="1" parent="1">
          <mxGeometry x="420" y="370" width="89.5" height="31" as="geometry" />
        </mxCell>
        <mxCell id="yvyM9De7ikoliiOCbXH--37" value="" style="rounded=1;whiteSpace=wrap;html=1;fillColor=#d5e8d4;strokeColor=#82b366;" vertex="1" parent="1">
          <mxGeometry x="594.5" y="185" width="197" height="165" as="geometry" />
        </mxCell>
        <mxCell id="yvyM9De7ikoliiOCbXH--36" value="postgres" style="shape=parallelogram;perimeter=parallelogramPerimeter;whiteSpace=wrap;html=1;fixedSize=1;" vertex="1" parent="1">
          <mxGeometry x="614.5" y="207.5" width="89.5" height="31" as="geometry" />
        </mxCell>
        <mxCell id="yvyM9De7ikoliiOCbXH--38" value="golang" style="shape=parallelogram;perimeter=parallelogramPerimeter;whiteSpace=wrap;html=1;fixedSize=1;" vertex="1" parent="1">
          <mxGeometry x="609" y="250.5" width="89.5" height="31" as="geometry" />
        </mxCell>
        <mxCell id="yvyM9De7ikoliiOCbXH--39" value="nginx" style="shape=parallelogram;perimeter=parallelogramPerimeter;whiteSpace=wrap;html=1;fixedSize=1;" vertex="1" parent="1">
          <mxGeometry x="609" y="296.5" width="89.5" height="31" as="geometry" />
        </mxCell>
        <mxCell id="yvyM9De7ikoliiOCbXH--41" value="mariadb" style="shape=parallelogram;perimeter=parallelogramPerimeter;whiteSpace=wrap;html=1;fixedSize=1;" vertex="1" parent="1">
          <mxGeometry x="695" y="207.5" width="89.5" height="31" as="geometry" />
        </mxCell>
        <mxCell id="yvyM9De7ikoliiOCbXH--42" value="redis" style="shape=parallelogram;perimeter=parallelogramPerimeter;whiteSpace=wrap;html=1;fixedSize=1;" vertex="1" parent="1">
          <mxGeometry x="688" y="250.5" width="89.5" height="31" as="geometry" />
        </mxCell>
        <mxCell id="yvyM9De7ikoliiOCbXH--43" value="alpine" style="shape=parallelogram;perimeter=parallelogramPerimeter;whiteSpace=wrap;html=1;fixedSize=1;" vertex="1" parent="1">
          <mxGeometry x="688" y="296" width="89.5" height="31" as="geometry" />
        </mxCell>
        <mxCell id="yvyM9De7ikoliiOCbXH--44" value="" style="endArrow=classic;html=1;rounded=0;fontSize=12;startSize=8;endSize=8;curved=1;exitX=1;exitY=0.5;exitDx=0;exitDy=0;entryX=0;entryY=0.5;entryDx=0;entryDy=0;dashed=1;" edge="1" parent="1" source="yvyM9De7ikoliiOCbXH--16" target="yvyM9De7ikoliiOCbXH--24">
          <mxGeometry width="50" height="50" relative="1" as="geometry">
            <mxPoint x="325" y="284" as="sourcePoint" />
            <mxPoint x="375" y="234" as="targetPoint" />
            <Array as="points">
              <mxPoint x="223" y="204" />
            </Array>
          </mxGeometry>
        </mxCell>
        <mxCell id="yvyM9De7ikoliiOCbXH--45" value="" style="endArrow=classic;html=1;rounded=0;fontSize=12;startSize=8;endSize=8;curved=1;exitX=0.5;exitY=1;exitDx=0;exitDy=0;entryX=0;entryY=0.25;entryDx=0;entryDy=0;dashed=1;" edge="1" parent="1" source="yvyM9De7ikoliiOCbXH--24" target="yvyM9De7ikoliiOCbXH--33">
          <mxGeometry width="50" height="50" relative="1" as="geometry">
            <mxPoint x="201" y="278" as="sourcePoint" />
            <mxPoint x="314" y="195" as="targetPoint" />
            <Array as="points">
              <mxPoint x="393" y="254" />
            </Array>
          </mxGeometry>
        </mxCell>
        <mxCell id="yvyM9De7ikoliiOCbXH--46" value="" style="endArrow=classic;html=1;rounded=0;fontSize=12;startSize=8;endSize=8;curved=1;exitX=0;exitY=0.5;exitDx=0;exitDy=0;entryX=1;entryY=0.5;entryDx=0;entryDy=0;dashed=1;entryPerimeter=0;" edge="1" parent="1" source="yvyM9De7ikoliiOCbXH--33" target="yvyM9De7ikoliiOCbXH--31">
          <mxGeometry width="50" height="50" relative="1" as="geometry">
            <mxPoint x="403" y="220" as="sourcePoint" />
            <mxPoint x="446" y="305" as="targetPoint" />
            <Array as="points">
              <mxPoint x="400" y="303" />
            </Array>
          </mxGeometry>
        </mxCell>
        <mxCell id="yvyM9De7ikoliiOCbXH--48" value="" style="endArrow=classic;html=1;rounded=0;fontSize=12;startSize=8;endSize=8;curved=1;exitX=1;exitY=0.5;exitDx=0;exitDy=0;entryX=0;entryY=0.5;entryDx=0;entryDy=0;dashed=1;" edge="1" parent="1" source="yvyM9De7ikoliiOCbXH--24" target="yvyM9De7ikoliiOCbXH--39">
          <mxGeometry width="50" height="50" relative="1" as="geometry">
            <mxPoint x="403" y="220" as="sourcePoint" />
            <mxPoint x="446" y="305" as="targetPoint" />
            <Array as="points">
              <mxPoint x="567" y="237" />
            </Array>
          </mxGeometry>
        </mxCell>
        <mxCell id="yvyM9De7ikoliiOCbXH--49" value="" style="endArrow=classic;html=1;rounded=0;fontSize=12;startSize=8;endSize=8;curved=1;exitX=0.25;exitY=1;exitDx=0;exitDy=0;entryX=1;entryY=0.5;entryDx=0;entryDy=0;dashed=1;" edge="1" parent="1" source="yvyM9De7ikoliiOCbXH--39" target="yvyM9De7ikoliiOCbXH--35">
          <mxGeometry width="50" height="50" relative="1" as="geometry">
            <mxPoint x="533" y="350" as="sourcePoint" />
            <mxPoint x="670" y="477" as="targetPoint" />
            <Array as="points">
              <mxPoint x="578" y="390" />
            </Array>
          </mxGeometry>
        </mxCell>
      </root>
    </mxGraphModel>
  </diagram>
</mxfile>
